<?xml version="1.0" encoding="UTF-8"?>
<svg width="20px" height="25px" viewBox="0 0 20 25" version="1.1" xmlns="http://www.w3.org/2000/svg" xmlns:xlink="http://www.w3.org/1999/xlink">
    <title>Kyocera</title>
    <g id="Page-1" stroke="none" stroke-width="1" fill="none" fill-rule="evenodd">
        <g id="logo" transform="translate(0.108000, 0.815029)" fill="#DA3831" fill-rule="nonzero">
            <path d="M14.97,12.158 L14.974,19.45 L7.58,19.456 C7.694,19.204 13.282,13.804 14.008,13.054 C14.178,12.878 14.78,12.24 14.97,12.158 Z M6.554,5.596 C6.708,5.444 7.35,4.734 7.492,4.7418021 L7.496,19.4 C7.36,19.364 5.856,17.84 5.606,17.596 C4.982,16.988 4.326,16.322 3.742,15.75 C3.55,15.562 0.158,12.26 0.046,12.06 L6.554,5.596 Z M14.97,11.998 C14.802,11.906 14.158,11.25 13.994,11.08 L10.296,7.4 C9.986,7.08 9.682,6.796 9.374,6.488 L7.63,4.762 C7.572,4.692 7.588,4.746 7.562,4.642 L14.974,4.65 L14.97,11.998 Z M19.64,7.512 L19.678,0 L12.14,0.014 L7.94,4.19 C7.61,4.526 7.574,4.634 7.312,4.634 L0,4.632 L0.014,19.476 C2.028,19.516 4.09,19.476 6.116,19.476 C7.786,19.476 7.312,19.334 7.942,19.924 C9.06,20.974 10.236,22.22 11.372,23.32 C11.508,23.454 11.614,23.55 11.76,23.692 C12.362,24.284 12.016,24.124 13.616,24.124 C14.628,24.124 15.638,24.124 16.648,24.124 C17.584,24.124 18.784,24.19 19.688,24.116 C19.734,23.458 19.696,22.67 19.696,21.998 L19.696,17.846 C19.696,16.526 19.844,16.852 19.222,16.232 C19.03,16.042 15.154,12.31 15.042,12.06 L19.074,8.02 C19.156,7.938 19.536,7.534 19.64,7.512 L19.64,7.512 Z" id="Fill-1"></path>
        </g>
    </g>
</svg>


